<svg xmlns="http://www.w3.org/2000/svg" xmlns:xlink="http://www.w3.org/1999/xlink" width="500" zoomAndPan="magnify" viewBox="0 0 375 374.999991" height="500" preserveAspectRatio="xMidYMid meet" version="1.2"><defs><clipPath id="406292919e"><path d="M 97.226562 127.03125 L 250 127.03125 L 250 178.78125 L 97.226562 178.78125 Z M 97.226562 127.03125 "/></clipPath><clipPath id="bac01d0371"><path d="M 189 128 L 277.976562 128 L 277.976562 178 L 189 178 Z M 189 128 "/></clipPath></defs><g id="840a55d8c9"><g clip-rule="nonzero" clip-path="url(#406292919e)"><path style=" stroke:none;fill-rule:evenodd;fill:#ffffff;fill-opacity:1;" d="M 99.96875 178.285156 L 173.453125 130.742188 C 173.453125 130.742188 246.941406 178.285156 246.941406 178.285156 C 247.703125 178.777344 248.722656 178.558594 249.210938 177.796875 C 249.703125 177.039062 249.488281 176.019531 248.726562 175.527344 C 248.726562 175.527344 174.347656 127.410156 174.347656 127.410156 C 173.804688 127.058594 173.105469 127.058594 172.5625 127.410156 C 172.5625 127.410156 98.183594 175.527344 98.183594 175.527344 C 97.425781 176.019531 97.207031 177.039062 97.699219 177.796875 C 98.191406 178.558594 99.207031 178.777344 99.96875 178.285156 Z M 99.96875 178.285156 "/></g><g clip-rule="nonzero" clip-path="url(#bac01d0371)"><path style=" stroke:none;fill-rule:evenodd;fill:#ffffff;fill-opacity:1;" d="M 191.625 140.464844 L 205.140625 131.71875 C 205.140625 131.71875 274.621094 177.296875 274.621094 177.296875 C 275.375 177.792969 276.394531 177.582031 276.890625 176.824219 C 277.386719 176.066406 277.175781 175.050781 276.417969 174.550781 C 276.417969 174.550781 206.046875 128.386719 206.046875 128.386719 C 205.503906 128.03125 204.800781 128.027344 204.257812 128.378906 C 204.257812 128.378906 198.273438 132.25 189.839844 137.707031 C 189.078125 138.199219 188.859375 139.214844 189.355469 139.976562 C 189.84375 140.738281 190.863281 140.953125 191.625 140.464844 Z M 191.625 140.464844 "/></g><path style=" stroke:none;fill-rule:evenodd;fill:#ffffff;fill-opacity:1;" d="M 139.882812 150.984375 L 139.882812 138.589844 C 139.882812 137.6875 139.148438 136.953125 138.246094 136.953125 L 124.574219 136.953125 C 123.664062 136.953125 122.9375 137.6875 122.9375 138.589844 L 122.9375 160.410156 C 122.9375 161.3125 123.664062 162.042969 124.574219 162.042969 C 125.476562 162.042969 126.210938 161.3125 126.210938 160.410156 L 126.210938 140.222656 C 126.210938 140.222656 136.613281 140.222656 136.613281 140.222656 L 136.613281 150.984375 C 136.613281 151.886719 137.347656 152.621094 138.246094 152.621094 C 139.148438 152.621094 139.882812 151.886719 139.882812 150.984375 Z M 139.882812 150.984375 "/><g style="fill:#ffffff;fill-opacity:1;"><g transform="translate(49.752965, 220.923149)"><path style="stroke:none" d="M 3.984375 0 L 3.984375 -31.765625 L 7.109375 -31.765625 L 7.109375 -2.78125 L 25.46875 -2.78125 L 25.46875 0 Z M 3.984375 0 "/></g></g><g style="fill:#ffffff;fill-opacity:1;"><g transform="translate(74.002994, 220.923149)"><path style="stroke:none" d="M 1.484375 -6.71875 C 1.484375 -8.175781 1.898438 -9.429688 2.734375 -10.484375 C 3.566406 -11.546875 4.71875 -12.367188 6.1875 -12.953125 C 7.664062 -13.535156 9.378906 -13.828125 11.328125 -13.828125 C 12.453125 -13.828125 13.625 -13.738281 14.84375 -13.5625 C 16.070312 -13.382812 17.164062 -13.113281 18.125 -12.75 L 18.125 -14.71875 C 18.125 -16.6875 17.539062 -18.253906 16.375 -19.421875 C 15.21875 -20.585938 13.609375 -21.171875 11.546875 -21.171875 C 10.296875 -21.171875 9.066406 -20.9375 7.859375 -20.46875 C 6.648438 -20.007812 5.390625 -19.332031 4.078125 -18.4375 L 2.90625 -20.578125 C 4.425781 -21.628906 5.914062 -22.414062 7.375 -22.9375 C 8.84375 -23.457031 10.335938 -23.71875 11.859375 -23.71875 C 14.722656 -23.71875 16.988281 -22.894531 18.65625 -21.25 C 20.332031 -19.613281 21.171875 -17.347656 21.171875 -14.453125 L 21.171875 -3.671875 C 21.171875 -3.253906 21.257812 -2.945312 21.4375 -2.75 C 21.613281 -2.5625 21.894531 -2.453125 22.28125 -2.421875 L 22.28125 0 C 21.957031 0.03125 21.675781 0.0625 21.4375 0.09375 C 21.195312 0.125 21.015625 0.125 20.890625 0.09375 C 20.148438 0.0625 19.582031 -0.175781 19.1875 -0.625 C 18.800781 -1.070312 18.597656 -1.550781 18.578125 -2.0625 L 18.53125 -3.765625 C 17.476562 -2.421875 16.117188 -1.378906 14.453125 -0.640625 C 12.785156 0.0859375 11.085938 0.453125 9.359375 0.453125 C 7.859375 0.453125 6.503906 0.128906 5.296875 -0.515625 C 4.085938 -1.160156 3.148438 -2.023438 2.484375 -3.109375 C 1.816406 -4.203125 1.484375 -5.40625 1.484375 -6.71875 Z M 17.09375 -4.921875 C 17.425781 -5.335938 17.679688 -5.738281 17.859375 -6.125 C 18.035156 -6.519531 18.125 -6.863281 18.125 -7.15625 L 18.125 -10.5625 C 17.113281 -10.945312 16.0625 -11.242188 14.96875 -11.453125 C 13.875 -11.660156 12.78125 -11.765625 11.6875 -11.765625 C 9.5 -11.765625 7.734375 -11.332031 6.390625 -10.46875 C 5.054688 -9.601562 4.390625 -8.425781 4.390625 -6.9375 C 4.390625 -6.070312 4.613281 -5.257812 5.0625 -4.5 C 5.507812 -3.738281 6.164062 -3.109375 7.03125 -2.609375 C 7.894531 -2.117188 8.90625 -1.875 10.0625 -1.875 C 11.53125 -1.875 12.894531 -2.15625 14.15625 -2.71875 C 15.425781 -3.289062 16.40625 -4.023438 17.09375 -4.921875 Z M 17.09375 -4.921875 "/></g></g><g style="fill:#ffffff;fill-opacity:1;"><g transform="translate(96.552832, 220.923149)"><path style="stroke:none" d="M 14.984375 -20.625 C 12.960938 -20.570312 11.179688 -20.003906 9.640625 -18.921875 C 8.109375 -17.847656 7.03125 -16.375 6.40625 -14.5 L 6.40625 0 L 3.359375 0 L 3.359375 -23.3125 L 6.21875 -23.3125 L 6.21875 -17.71875 C 7.019531 -19.363281 8.082031 -20.691406 9.40625 -21.703125 C 10.738281 -22.710938 12.15625 -23.28125 13.65625 -23.40625 C 13.945312 -23.4375 14.203125 -23.453125 14.421875 -23.453125 C 14.648438 -23.453125 14.835938 -23.4375 14.984375 -23.40625 Z M 14.984375 -20.625 "/></g></g><g style="fill:#ffffff;fill-opacity:1;"><g transform="translate(110.422692, 220.923149)"><path style="stroke:none" d=""/></g></g><g style="fill:#ffffff;fill-opacity:1;"><g transform="translate(119.997311, 220.923149)"><path style="stroke:none" d="M 3.984375 0 L 3.984375 -31.765625 L 14.765625 -31.765625 C 18.140625 -31.765625 20.953125 -31.054688 23.203125 -29.640625 C 25.453125 -28.222656 27.144531 -26.3125 28.28125 -23.90625 C 29.414062 -21.507812 29.984375 -18.851562 29.984375 -15.9375 C 29.984375 -12.707031 29.363281 -9.898438 28.125 -7.515625 C 26.882812 -5.128906 25.125 -3.28125 22.84375 -1.96875 C 20.5625 -0.65625 17.867188 0 14.765625 0 Z M 26.84375 -15.9375 C 26.84375 -18.46875 26.375 -20.71875 25.4375 -22.6875 C 24.5 -24.65625 23.132812 -26.195312 21.34375 -27.3125 C 19.550781 -28.4375 17.359375 -29 14.765625 -29 L 7.109375 -29 L 7.109375 -2.78125 L 14.765625 -2.78125 C 17.390625 -2.78125 19.597656 -3.359375 21.390625 -4.515625 C 23.179688 -5.679688 24.535156 -7.253906 25.453125 -9.234375 C 26.378906 -11.222656 26.84375 -13.457031 26.84375 -15.9375 Z M 26.84375 -15.9375 "/></g></g><g style="fill:#ffffff;fill-opacity:1;"><g transform="translate(150.153304, 220.923149)"><path style="stroke:none" d="M 13.296875 0.453125 C 11.617188 0.453125 10.070312 0.128906 8.65625 -0.515625 C 7.238281 -1.160156 6.015625 -2.039062 4.984375 -3.15625 C 3.960938 -4.269531 3.164062 -5.550781 2.59375 -7 C 2.03125 -8.445312 1.75 -9.976562 1.75 -11.59375 C 1.75 -13.257812 2.03125 -14.816406 2.59375 -16.265625 C 3.164062 -17.710938 3.972656 -18.992188 5.015625 -20.109375 C 6.054688 -21.234375 7.285156 -22.113281 8.703125 -22.75 C 10.117188 -23.394531 11.660156 -23.71875 13.328125 -23.71875 C 15.003906 -23.71875 16.539062 -23.394531 17.9375 -22.75 C 19.34375 -22.113281 20.566406 -21.234375 21.609375 -20.109375 C 22.660156 -18.992188 23.46875 -17.710938 24.03125 -16.265625 C 24.59375 -14.816406 24.875 -13.257812 24.875 -11.59375 C 24.875 -9.976562 24.59375 -8.445312 24.03125 -7 C 23.46875 -5.550781 22.671875 -4.269531 21.640625 -3.15625 C 20.609375 -2.039062 19.382812 -1.160156 17.96875 -0.515625 C 16.550781 0.128906 14.992188 0.453125 13.296875 0.453125 Z M 4.828125 -11.546875 C 4.828125 -9.816406 5.207031 -8.242188 5.96875 -6.828125 C 6.726562 -5.410156 7.75 -4.289062 9.03125 -3.46875 C 10.320312 -2.644531 11.742188 -2.234375 13.296875 -2.234375 C 14.847656 -2.234375 16.265625 -2.648438 17.546875 -3.484375 C 18.828125 -4.328125 19.851562 -5.46875 20.625 -6.90625 C 21.40625 -8.351562 21.796875 -9.929688 21.796875 -11.640625 C 21.796875 -13.367188 21.40625 -14.945312 20.625 -16.375 C 19.851562 -17.8125 18.828125 -18.945312 17.546875 -19.78125 C 16.265625 -20.613281 14.847656 -21.03125 13.296875 -21.03125 C 11.742188 -21.03125 10.332031 -20.597656 9.0625 -19.734375 C 7.789062 -18.867188 6.765625 -17.726562 5.984375 -16.3125 C 5.210938 -14.894531 4.828125 -13.304688 4.828125 -11.546875 Z M 4.828125 -11.546875 "/></g></g><g style="fill:#ffffff;fill-opacity:1;"><g transform="translate(174.940244, 220.923149)"><path style="stroke:none" d="M 13.46875 0.453125 C 11.769531 0.453125 10.210938 0.128906 8.796875 -0.515625 C 7.378906 -1.160156 6.140625 -2.046875 5.078125 -3.171875 C 4.015625 -4.304688 3.191406 -5.601562 2.609375 -7.0625 C 2.035156 -8.53125 1.75 -10.082031 1.75 -11.71875 C 1.75 -13.925781 2.238281 -15.941406 3.21875 -17.765625 C 4.207031 -19.585938 5.582031 -21.035156 7.34375 -22.109375 C 9.101562 -23.179688 11.128906 -23.71875 13.421875 -23.71875 C 15.597656 -23.71875 17.519531 -23.21875 19.1875 -22.21875 C 20.863281 -21.21875 22.101562 -19.867188 22.90625 -18.171875 L 19.953125 -17.234375 C 19.296875 -18.421875 18.378906 -19.347656 17.203125 -20.015625 C 16.023438 -20.691406 14.722656 -21.03125 13.296875 -21.03125 C 11.742188 -21.03125 10.320312 -20.625 9.03125 -19.8125 C 7.75 -19.007812 6.726562 -17.90625 5.96875 -16.5 C 5.207031 -15.101562 4.828125 -13.507812 4.828125 -11.71875 C 4.828125 -9.957031 5.210938 -8.359375 5.984375 -6.921875 C 6.765625 -5.492188 7.796875 -4.351562 9.078125 -3.5 C 10.367188 -2.65625 11.785156 -2.234375 13.328125 -2.234375 C 14.347656 -2.234375 15.328125 -2.410156 16.265625 -2.765625 C 17.203125 -3.128906 18.019531 -3.613281 18.71875 -4.21875 C 19.425781 -4.832031 19.898438 -5.5 20.140625 -6.21875 L 23.140625 -5.328125 C 22.722656 -4.222656 22.023438 -3.226562 21.046875 -2.34375 C 20.078125 -1.46875 18.941406 -0.78125 17.640625 -0.28125 C 16.347656 0.207031 14.957031 0.453125 13.46875 0.453125 Z M 13.46875 0.453125 "/></g></g><g style="fill:#ffffff;fill-opacity:1;"><g transform="translate(197.669044, 220.923149)"><path style="stroke:none" d="M 13.421875 0.453125 C 11.753906 0.453125 10.203125 0.128906 8.765625 -0.515625 C 7.335938 -1.160156 6.097656 -2.039062 5.046875 -3.15625 C 4.003906 -4.269531 3.191406 -5.554688 2.609375 -7.015625 C 2.035156 -8.484375 1.75 -10.050781 1.75 -11.71875 C 1.75 -13.894531 2.25 -15.894531 3.25 -17.71875 C 4.25 -19.539062 5.628906 -20.992188 7.390625 -22.078125 C 9.148438 -23.171875 11.144531 -23.71875 13.375 -23.71875 C 15.675781 -23.71875 17.679688 -23.164062 19.390625 -22.0625 C 21.109375 -20.957031 22.457031 -19.5 23.4375 -17.6875 C 24.425781 -15.882812 24.921875 -13.910156 24.921875 -11.765625 C 24.921875 -11.523438 24.921875 -11.289062 24.921875 -11.0625 C 24.921875 -10.84375 24.90625 -10.675781 24.875 -10.5625 L 4.921875 -10.5625 C 5.066406 -8.894531 5.535156 -7.410156 6.328125 -6.109375 C 7.117188 -4.804688 8.148438 -3.773438 9.421875 -3.015625 C 10.691406 -2.253906 12.070312 -1.875 13.5625 -1.875 C 15.082031 -1.875 16.519531 -2.257812 17.875 -3.03125 C 19.226562 -3.8125 20.175781 -4.832031 20.71875 -6.09375 L 23.359375 -5.375 C 22.878906 -4.269531 22.144531 -3.269531 21.15625 -2.375 C 20.175781 -1.476562 19.019531 -0.78125 17.6875 -0.28125 C 16.363281 0.207031 14.941406 0.453125 13.421875 0.453125 Z M 4.828125 -12.75 L 22.0625 -12.75 C 21.9375 -14.445312 21.476562 -15.9375 20.6875 -17.21875 C 19.90625 -18.507812 18.878906 -19.519531 17.609375 -20.25 C 16.335938 -20.976562 14.941406 -21.34375 13.421875 -21.34375 C 11.898438 -21.34375 10.515625 -20.976562 9.265625 -20.25 C 8.015625 -19.519531 6.992188 -18.503906 6.203125 -17.203125 C 5.410156 -15.910156 4.953125 -14.425781 4.828125 -12.75 Z M 4.828125 -12.75 "/></g></g><g style="fill:#ffffff;fill-opacity:1;"><g transform="translate(222.098047, 220.923149)"><path style="stroke:none" d=""/></g></g><g style="fill:#ffffff;fill-opacity:1;"><g transform="translate(231.672665, 220.923149)"><path style="stroke:none" d="M 1.875 -16.109375 C 1.875 -18.046875 2.207031 -19.945312 2.875 -21.8125 C 3.550781 -23.675781 4.53125 -25.375 5.8125 -26.90625 C 7.09375 -28.445312 8.671875 -29.671875 10.546875 -30.578125 C 12.429688 -31.492188 14.566406 -31.953125 16.953125 -31.953125 C 19.796875 -31.953125 22.222656 -31.300781 24.234375 -30 C 26.242188 -28.707031 27.726562 -27.046875 28.6875 -25.015625 L 26.21875 -23.5 C 25.53125 -24.894531 24.664062 -26.003906 23.625 -26.828125 C 22.582031 -27.648438 21.472656 -28.238281 20.296875 -28.59375 C 19.117188 -28.945312 17.945312 -29.125 16.78125 -29.125 C 14.875 -29.125 13.1875 -28.742188 11.71875 -27.984375 C 10.257812 -27.222656 9.03125 -26.207031 8.03125 -24.9375 C 7.03125 -23.675781 6.273438 -22.257812 5.765625 -20.6875 C 5.265625 -19.125 5.015625 -17.539062 5.015625 -15.9375 C 5.015625 -14.175781 5.3125 -12.488281 5.90625 -10.875 C 6.5 -9.257812 7.332031 -7.832031 8.40625 -6.59375 C 9.488281 -5.363281 10.75 -4.378906 12.1875 -3.640625 C 13.632812 -2.910156 15.210938 -2.546875 16.921875 -2.546875 C 18.109375 -2.546875 19.328125 -2.753906 20.578125 -3.171875 C 21.835938 -3.585938 23.007812 -4.226562 24.09375 -5.09375 C 25.1875 -5.96875 26.0625 -7.085938 26.71875 -8.453125 L 29.3125 -7.109375 C 28.65625 -5.535156 27.640625 -4.195312 26.265625 -3.09375 C 24.890625 -1.988281 23.359375 -1.148438 21.671875 -0.578125 C 19.992188 -0.015625 18.347656 0.265625 16.734375 0.265625 C 14.554688 0.265625 12.554688 -0.203125 10.734375 -1.140625 C 8.921875 -2.078125 7.347656 -3.328125 6.015625 -4.890625 C 4.691406 -6.460938 3.671875 -8.222656 2.953125 -10.171875 C 2.234375 -12.128906 1.875 -14.109375 1.875 -16.109375 Z M 1.875 -16.109375 "/></g></g><g style="fill:#ffffff;fill-opacity:1;"><g transform="translate(260.53115, 220.923149)"><path style="stroke:none" d="M 3.484375 -32.671875 L 6.53125 -32.671875 L 6.53125 -5.28125 C 6.53125 -4.113281 6.738281 -3.351562 7.15625 -3 C 7.570312 -2.644531 8.082031 -2.46875 8.6875 -2.46875 C 9.21875 -2.46875 9.75 -2.523438 10.28125 -2.640625 C 10.820312 -2.753906 11.289062 -2.875 11.6875 -3 L 12.21875 -0.53125 C 11.644531 -0.289062 10.945312 -0.0976562 10.125 0.046875 C 9.3125 0.191406 8.609375 0.265625 8.015625 0.265625 C 6.640625 0.265625 5.539062 -0.132812 4.71875 -0.9375 C 3.894531 -1.738281 3.484375 -2.84375 3.484375 -4.25 Z M 3.484375 -32.671875 "/></g></g><g style="fill:#ffffff;fill-opacity:1;"><g transform="translate(270.866377, 220.923149)"><path style="stroke:none" d="M 3.359375 0 L 3.359375 -23.3125 L 6.40625 -23.3125 L 6.40625 0 Z M 3.359375 -28.1875 L 3.359375 -32.671875 L 6.40625 -32.671875 L 6.40625 -28.1875 Z M 3.359375 -28.1875 "/></g></g><g style="fill:#ffffff;fill-opacity:1;"><g transform="translate(278.785528, 220.923149)"><path style="stroke:none" d="M 13.46875 0.453125 C 11.769531 0.453125 10.210938 0.128906 8.796875 -0.515625 C 7.378906 -1.160156 6.140625 -2.046875 5.078125 -3.171875 C 4.015625 -4.304688 3.191406 -5.601562 2.609375 -7.0625 C 2.035156 -8.53125 1.75 -10.082031 1.75 -11.71875 C 1.75 -13.925781 2.238281 -15.941406 3.21875 -17.765625 C 4.207031 -19.585938 5.582031 -21.035156 7.34375 -22.109375 C 9.101562 -23.179688 11.128906 -23.71875 13.421875 -23.71875 C 15.597656 -23.71875 17.519531 -23.21875 19.1875 -22.21875 C 20.863281 -21.21875 22.101562 -19.867188 22.90625 -18.171875 L 19.953125 -17.234375 C 19.296875 -18.421875 18.378906 -19.347656 17.203125 -20.015625 C 16.023438 -20.691406 14.722656 -21.03125 13.296875 -21.03125 C 11.742188 -21.03125 10.320312 -20.625 9.03125 -19.8125 C 7.75 -19.007812 6.726562 -17.90625 5.96875 -16.5 C 5.207031 -15.101562 4.828125 -13.507812 4.828125 -11.71875 C 4.828125 -9.957031 5.210938 -8.359375 5.984375 -6.921875 C 6.765625 -5.492188 7.796875 -4.351562 9.078125 -3.5 C 10.367188 -2.65625 11.785156 -2.234375 13.328125 -2.234375 C 14.347656 -2.234375 15.328125 -2.410156 16.265625 -2.765625 C 17.203125 -3.128906 18.019531 -3.613281 18.71875 -4.21875 C 19.425781 -4.832031 19.898438 -5.5 20.140625 -6.21875 L 23.140625 -5.328125 C 22.722656 -4.222656 22.023438 -3.226562 21.046875 -2.34375 C 20.078125 -1.46875 18.941406 -0.78125 17.640625 -0.28125 C 16.347656 0.207031 14.957031 0.453125 13.46875 0.453125 Z M 13.46875 0.453125 "/></g></g><g style="fill:#ffffff;fill-opacity:1;"><g transform="translate(301.51434, 220.923149)"><path style="stroke:none" d="M 20 0 L 11.359375 -11.953125 L 6.40625 -7.296875 L 6.40625 0 L 3.359375 0 L 3.359375 -32.671875 L 6.40625 -32.671875 L 6.40625 -10.5625 L 19.59375 -23.265625 L 22.953125 -23.265625 L 13.421875 -13.734375 L 23.3125 0 Z M 20 0 "/></g></g><g style="fill:#ffffff;fill-opacity:1;"><g transform="translate(78.468031, 244.221831)"><path style="stroke:none" d="M 1.234375 -8.765625 L 5 -8.765625 C 5.539062 -8.765625 6.019531 -8.6875 6.4375 -8.53125 C 6.863281 -8.375 7.21875 -8.160156 7.5 -7.890625 C 7.71875 -7.671875 7.882812 -7.414062 8 -7.125 C 8.113281 -6.832031 8.171875 -6.507812 8.171875 -6.15625 L 8.171875 -6.125 C 8.171875 -5.757812 8.113281 -5.429688 8 -5.140625 C 7.882812 -4.859375 7.71875 -4.609375 7.5 -4.390625 C 7.289062 -4.179688 7.039062 -4.007812 6.75 -3.875 C 6.457031 -3.738281 6.140625 -3.640625 5.796875 -3.578125 L 8.484375 0 L 7.265625 0 L 4.734375 -3.40625 L 2.234375 -3.40625 L 2.234375 0 L 1.234375 0 Z M 4.921875 -4.296875 C 5.242188 -4.296875 5.539062 -4.335938 5.8125 -4.421875 C 6.09375 -4.503906 6.332031 -4.617188 6.53125 -4.765625 C 6.726562 -4.921875 6.882812 -5.109375 7 -5.328125 C 7.113281 -5.554688 7.171875 -5.8125 7.171875 -6.09375 L 7.171875 -6.125 C 7.171875 -6.664062 6.972656 -7.085938 6.578125 -7.390625 C 6.191406 -7.691406 5.644531 -7.84375 4.9375 -7.84375 L 2.234375 -7.84375 L 2.234375 -4.296875 Z M 4.921875 -4.296875 "/></g></g><g style="fill:#ffffff;fill-opacity:1;"><g transform="translate(91.550814, 244.221831)"><path style="stroke:none" d="M 1.234375 -8.765625 L 7.578125 -8.765625 L 7.578125 -7.859375 L 2.234375 -7.859375 L 2.234375 -4.875 L 7.015625 -4.875 L 7.015625 -3.96875 L 2.234375 -3.96875 L 2.234375 -0.90625 L 7.640625 -0.90625 L 7.640625 0 L 1.234375 0 Z M 1.234375 -8.765625 "/></g></g><g style="fill:#ffffff;fill-opacity:1;"><g transform="translate(103.970928, 244.221831)"><path style="stroke:none" d="M 4.484375 -8.828125 L 5.40625 -8.828125 L 9.40625 0 L 8.328125 0 L 7.3125 -2.3125 L 2.546875 -2.3125 L 1.5 0 L 0.484375 0 Z M 6.921875 -3.203125 L 4.9375 -7.671875 L 2.921875 -3.203125 Z M 6.921875 -3.203125 "/></g></g><g style="fill:#ffffff;fill-opacity:1;"><g transform="translate(117.891431, 244.221831)"><path style="stroke:none" d="M 1.234375 -8.765625 L 2.234375 -8.765625 L 2.234375 -0.90625 L 7.15625 -0.90625 L 7.15625 0 L 1.234375 0 Z M 1.234375 -8.765625 "/></g></g><g style="fill:#ffffff;fill-opacity:1;"><g transform="translate(129.623879, 244.221831)"><path style="stroke:none" d=""/></g></g><g style="fill:#ffffff;fill-opacity:1;"><g transform="translate(137.417825, 244.221831)"><path style="stroke:none" d="M 1.234375 -8.765625 L 7.578125 -8.765625 L 7.578125 -7.859375 L 2.234375 -7.859375 L 2.234375 -4.875 L 7.015625 -4.875 L 7.015625 -3.96875 L 2.234375 -3.96875 L 2.234375 -0.90625 L 7.640625 -0.90625 L 7.640625 0 L 1.234375 0 Z M 1.234375 -8.765625 "/></g></g><g style="fill:#ffffff;fill-opacity:1;"><g transform="translate(149.83794, 244.221831)"><path style="stroke:none" d="M 4.25 0.125 C 3.539062 0.125 2.894531 0.0078125 2.3125 -0.21875 C 1.738281 -0.445312 1.1875 -0.800781 0.65625 -1.28125 L 1.28125 -2 C 1.738281 -1.582031 2.195312 -1.269531 2.65625 -1.0625 C 3.125 -0.863281 3.664062 -0.765625 4.28125 -0.765625 C 4.875 -0.765625 5.347656 -0.90625 5.703125 -1.1875 C 6.054688 -1.46875 6.234375 -1.820312 6.234375 -2.25 L 6.234375 -2.28125 C 6.234375 -2.476562 6.195312 -2.65625 6.125 -2.8125 C 6.0625 -2.976562 5.945312 -3.128906 5.78125 -3.265625 C 5.613281 -3.398438 5.378906 -3.519531 5.078125 -3.625 C 4.785156 -3.738281 4.410156 -3.84375 3.953125 -3.9375 C 3.453125 -4.050781 3.015625 -4.175781 2.640625 -4.3125 C 2.273438 -4.457031 1.96875 -4.628906 1.71875 -4.828125 C 1.476562 -5.023438 1.300781 -5.257812 1.1875 -5.53125 C 1.070312 -5.800781 1.015625 -6.113281 1.015625 -6.46875 L 1.015625 -6.5 C 1.015625 -6.84375 1.082031 -7.160156 1.21875 -7.453125 C 1.363281 -7.742188 1.566406 -7.992188 1.828125 -8.203125 C 2.085938 -8.410156 2.390625 -8.578125 2.734375 -8.703125 C 3.085938 -8.828125 3.472656 -8.890625 3.890625 -8.890625 C 4.535156 -8.890625 5.097656 -8.796875 5.578125 -8.609375 C 6.054688 -8.429688 6.519531 -8.164062 6.96875 -7.8125 L 6.390625 -7.046875 C 5.984375 -7.378906 5.570312 -7.617188 5.15625 -7.765625 C 4.75 -7.921875 4.320312 -8 3.875 -8 C 3.289062 -8 2.832031 -7.863281 2.5 -7.59375 C 2.164062 -7.320312 2 -6.984375 2 -6.578125 L 2 -6.5625 C 2 -6.351562 2.03125 -6.164062 2.09375 -6 C 2.164062 -5.832031 2.289062 -5.679688 2.46875 -5.546875 C 2.644531 -5.410156 2.882812 -5.285156 3.1875 -5.171875 C 3.5 -5.054688 3.894531 -4.953125 4.375 -4.859375 C 5.351562 -4.640625 6.070312 -4.335938 6.53125 -3.953125 C 7 -3.566406 7.234375 -3.039062 7.234375 -2.375 L 7.234375 -2.359375 C 7.234375 -1.984375 7.15625 -1.640625 7 -1.328125 C 6.851562 -1.023438 6.648438 -0.765625 6.390625 -0.546875 C 6.128906 -0.328125 5.8125 -0.160156 5.4375 -0.046875 C 5.070312 0.0664062 4.675781 0.125 4.25 0.125 Z M 4.25 0.125 "/></g></g><g style="fill:#ffffff;fill-opacity:1;"><g transform="translate(161.882963, 244.221831)"><path style="stroke:none" d="M 3.515625 -7.84375 L 0.5625 -7.84375 L 0.5625 -8.765625 L 7.453125 -8.765625 L 7.453125 -7.84375 L 4.5 -7.84375 L 4.5 0 L 3.515625 0 Z M 3.515625 -7.84375 "/></g></g><g style="fill:#ffffff;fill-opacity:1;"><g transform="translate(173.940493, 244.221831)"><path style="stroke:none" d="M 4.484375 -8.828125 L 5.40625 -8.828125 L 9.40625 0 L 8.328125 0 L 7.3125 -2.3125 L 2.546875 -2.3125 L 1.5 0 L 0.484375 0 Z M 6.921875 -3.203125 L 4.9375 -7.671875 L 2.921875 -3.203125 Z M 6.921875 -3.203125 "/></g></g><g style="fill:#ffffff;fill-opacity:1;"><g transform="translate(187.860995, 244.221831)"><path style="stroke:none" d="M 3.515625 -7.84375 L 0.5625 -7.84375 L 0.5625 -8.765625 L 7.453125 -8.765625 L 7.453125 -7.84375 L 4.5 -7.84375 L 4.5 0 L 3.515625 0 Z M 3.515625 -7.84375 "/></g></g><g style="fill:#ffffff;fill-opacity:1;"><g transform="translate(199.918524, 244.221831)"><path style="stroke:none" d="M 1.234375 -8.765625 L 7.578125 -8.765625 L 7.578125 -7.859375 L 2.234375 -7.859375 L 2.234375 -4.875 L 7.015625 -4.875 L 7.015625 -3.96875 L 2.234375 -3.96875 L 2.234375 -0.90625 L 7.640625 -0.90625 L 7.640625 0 L 1.234375 0 Z M 1.234375 -8.765625 "/></g></g><g style="fill:#ffffff;fill-opacity:1;"><g transform="translate(212.338639, 244.221831)"><path style="stroke:none" d=""/></g></g><g style="fill:#ffffff;fill-opacity:1;"><g transform="translate(220.132585, 244.221831)"><path style="stroke:none" d="M 4.484375 -8.828125 L 5.40625 -8.828125 L 9.40625 0 L 8.328125 0 L 7.3125 -2.3125 L 2.546875 -2.3125 L 1.5 0 L 0.484375 0 Z M 6.921875 -3.203125 L 4.9375 -7.671875 L 2.921875 -3.203125 Z M 6.921875 -3.203125 "/></g></g><g style="fill:#ffffff;fill-opacity:1;"><g transform="translate(234.053087, 244.221831)"><path style="stroke:none" d="M 5.3125 0.15625 C 4.613281 0.15625 3.988281 0.0390625 3.4375 -0.1875 C 2.894531 -0.425781 2.429688 -0.75 2.046875 -1.15625 C 1.660156 -1.570312 1.363281 -2.050781 1.15625 -2.59375 C 0.945312 -3.144531 0.84375 -3.734375 0.84375 -4.359375 L 0.84375 -4.375 C 0.84375 -4.976562 0.945312 -5.550781 1.15625 -6.09375 C 1.375 -6.644531 1.675781 -7.128906 2.0625 -7.546875 C 2.445312 -7.960938 2.90625 -8.289062 3.4375 -8.53125 C 3.976562 -8.78125 4.582031 -8.90625 5.25 -8.90625 C 5.613281 -8.90625 5.945312 -8.878906 6.25 -8.828125 C 6.550781 -8.785156 6.832031 -8.710938 7.09375 -8.609375 C 7.363281 -8.503906 7.613281 -8.378906 7.84375 -8.234375 C 8.070312 -8.085938 8.296875 -7.925781 8.515625 -7.75 L 7.875 -7 C 7.707031 -7.144531 7.53125 -7.273438 7.34375 -7.390625 C 7.164062 -7.515625 6.96875 -7.617188 6.75 -7.703125 C 6.539062 -7.796875 6.304688 -7.867188 6.046875 -7.921875 C 5.796875 -7.972656 5.515625 -8 5.203125 -8 C 4.722656 -8 4.273438 -7.898438 3.859375 -7.703125 C 3.453125 -7.515625 3.101562 -7.257812 2.8125 -6.9375 C 2.519531 -6.613281 2.289062 -6.226562 2.125 -5.78125 C 1.957031 -5.34375 1.875 -4.882812 1.875 -4.40625 L 1.875 -4.375 C 1.875 -3.851562 1.953125 -3.367188 2.109375 -2.921875 C 2.273438 -2.484375 2.507812 -2.101562 2.8125 -1.78125 C 3.113281 -1.457031 3.476562 -1.203125 3.90625 -1.015625 C 4.332031 -0.828125 4.8125 -0.734375 5.34375 -0.734375 C 5.84375 -0.734375 6.3125 -0.816406 6.75 -0.984375 C 7.195312 -1.160156 7.570312 -1.367188 7.875 -1.609375 L 7.875 -3.796875 L 5.203125 -3.796875 L 5.203125 -4.6875 L 8.828125 -4.6875 L 8.828125 -1.1875 C 8.410156 -0.820312 7.90625 -0.503906 7.3125 -0.234375 C 6.71875 0.0234375 6.050781 0.15625 5.3125 0.15625 Z M 5.3125 0.15625 "/></g></g><g style="fill:#ffffff;fill-opacity:1;"><g transform="translate(247.898569, 244.221831)"><path style="stroke:none" d="M 1.234375 -8.765625 L 7.578125 -8.765625 L 7.578125 -7.859375 L 2.234375 -7.859375 L 2.234375 -4.875 L 7.015625 -4.875 L 7.015625 -3.96875 L 2.234375 -3.96875 L 2.234375 -0.90625 L 7.640625 -0.90625 L 7.640625 0 L 1.234375 0 Z M 1.234375 -8.765625 "/></g></g><g style="fill:#ffffff;fill-opacity:1;"><g transform="translate(260.318683, 244.221831)"><path style="stroke:none" d="M 1.234375 -8.765625 L 2.171875 -8.765625 L 7.6875 -1.734375 L 7.6875 -8.765625 L 8.640625 -8.765625 L 8.640625 0 L 7.859375 0 L 2.203125 -7.1875 L 2.203125 0 L 1.234375 0 Z M 1.234375 -8.765625 "/></g></g><g style="fill:#ffffff;fill-opacity:1;"><g transform="translate(274.239186, 244.221831)"><path style="stroke:none" d="M 5.25 0.15625 C 4.613281 0.15625 4.023438 0.0390625 3.484375 -0.1875 C 2.953125 -0.425781 2.488281 -0.75 2.09375 -1.15625 C 1.707031 -1.5625 1.398438 -2.039062 1.171875 -2.59375 C 0.953125 -3.144531 0.84375 -3.734375 0.84375 -4.359375 L 0.84375 -4.375 C 0.84375 -5 0.953125 -5.582031 1.171875 -6.125 C 1.398438 -6.675781 1.707031 -7.160156 2.09375 -7.578125 C 2.488281 -7.992188 2.957031 -8.316406 3.5 -8.546875 C 4.039062 -8.785156 4.632812 -8.90625 5.28125 -8.90625 C 5.675781 -8.90625 6.035156 -8.867188 6.359375 -8.796875 C 6.679688 -8.734375 6.976562 -8.640625 7.25 -8.515625 C 7.53125 -8.398438 7.785156 -8.253906 8.015625 -8.078125 C 8.253906 -7.910156 8.484375 -7.722656 8.703125 -7.515625 L 8.015625 -6.796875 C 7.640625 -7.148438 7.238281 -7.4375 6.8125 -7.65625 C 6.382812 -7.882812 5.867188 -8 5.265625 -8 C 4.785156 -8 4.335938 -7.90625 3.921875 -7.71875 C 3.503906 -7.539062 3.144531 -7.285156 2.84375 -6.953125 C 2.539062 -6.628906 2.300781 -6.25 2.125 -5.8125 C 1.957031 -5.375 1.875 -4.90625 1.875 -4.40625 L 1.875 -4.375 C 1.875 -3.863281 1.957031 -3.390625 2.125 -2.953125 C 2.300781 -2.515625 2.539062 -2.132812 2.84375 -1.8125 C 3.144531 -1.488281 3.503906 -1.234375 3.921875 -1.046875 C 4.335938 -0.859375 4.785156 -0.765625 5.265625 -0.765625 C 5.867188 -0.765625 6.382812 -0.875 6.8125 -1.09375 C 7.25 -1.3125 7.675781 -1.625 8.09375 -2.03125 L 8.75 -1.390625 C 8.519531 -1.148438 8.28125 -0.9375 8.03125 -0.75 C 7.789062 -0.5625 7.53125 -0.398438 7.25 -0.265625 C 6.96875 -0.140625 6.660156 -0.0390625 6.328125 0.03125 C 6.003906 0.113281 5.644531 0.15625 5.25 0.15625 Z M 5.25 0.15625 "/></g></g><g style="fill:#ffffff;fill-opacity:1;"><g transform="translate(287.559523, 244.221831)"><path style="stroke:none" d="M 3.984375 -3.46875 L 0.34375 -8.765625 L 1.546875 -8.765625 L 4.5 -4.375 L 7.46875 -8.765625 L 8.625 -8.765625 L 4.984375 -3.484375 L 4.984375 0 L 3.984375 0 Z M 3.984375 -3.46875 "/></g></g></g></svg>